<?xml version="1.0" encoding="iso-8859-1"?>
<!-- Generator: Adobe Illustrator 16.0.0, SVG Export Plug-In . SVG Version: 6.00 Build 0)  -->
<!DOCTYPE svg PUBLIC "-//W3C//DTD SVG 1.1//EN" "http://www.w3.org/Graphics/SVG/1.1/DTD/svg11.dtd">
<svg version="1.1" id="Capa_1" xmlns="http://www.w3.org/2000/svg" xmlns:xlink="http://www.w3.org/1999/xlink" x="0px" y="0px"
	 width="516.375px" height="516.375px" viewBox="0 0 516.375 516.375" style="enable-background:new 0 0 516.375 516.375;"
	 xml:space="preserve">
<g>
	<g>
		<path d="M457.088,208.462c-9.562-47.812-53.551-84.15-103.275-84.15c-17.213,0-32.513,3.825-45.9,11.475
			c-22.949-42.075-66.937-68.85-116.662-68.85c-74.587,0-133.875,59.288-133.875,133.875c0,1.913,0,5.737,0,7.65
			C22.95,223.763,0,256.275,0,296.438c0,53.55,42.075,95.625,95.625,95.625h47.812l114.75-191.25l114.75,191.25h47.812
			c53.55,0,95.625-42.075,95.625-95.625C516.375,256.275,491.513,221.85,457.088,208.462z"/>
		<path d="M133.875,449.438H382.5L258.188,239.062L133.875,449.438z M267.75,411.188h-19.125v-19.125h19.125V411.188z
			 M267.75,372.938h-19.125v-57.375h19.125V372.938z"/>
	</g>
</g>
<g>
</g>
<g>
</g>
<g>
</g>
<g>
</g>
<g>
</g>
<g>
</g>
<g>
</g>
<g>
</g>
<g>
</g>
<g>
</g>
<g>
</g>
<g>
</g>
<g>
</g>
<g>
</g>
<g>
</g>
</svg>
